<?xml version="1.0" encoding="utf-8"?>
<!-- Generator: Adobe Illustrator 19.0.0, SVG Export Plug-In . SVG Version: 6.00 Build 0)  -->
<svg version="1.1" id="Layer_1" xmlns="http://www.w3.org/2000/svg" xmlns:xlink="http://www.w3.org/1999/xlink" x="0px" y="0px"
	 viewBox="0 0 162 40" style="enable-background:new 0 0 162 40;" xml:space="preserve">
<style type="text/css">
	.st0{fill:#8F47C4;}
	.st1{fill:#FFCC05;}
</style>
<g id="XMLID_13_">
	<g id="XMLID_21_">
		<path id="XMLID_28_" class="st0" d="M94.3,14c-5.3,0-8.9,3.8-8.9,9.2c0,0.7,0.1,1.3,0.2,1.9c-2.5,1.8-5.1,2.5-6.8,2.5
			c-5,0-7.3-4-7.3-7.8c0-3.7,2.2-7.4,7.2-7.4c2,0,4.3,0.9,6,2.3c0.1,0.1,0.3,0.1,0.4,0.1c0.1,0,0.3-0.1,0.3-0.2l2-3.1
			c0.1-0.2,0.1-0.5-0.1-0.6c-2.2-2.1-5.4-3.3-8.8-3.3c-7.1,0-12.3,5.2-12.3,12.3c0,7.4,5.1,12.5,12.4,12.5c3.8,0,6.8-1,9-3
			c1.7,1.9,4.2,3,7.2,3c2.6,0,5.2-1,7-2.5c0.2-0.2,0.2-0.4,0.1-0.6l-1.6-3c-0.1-0.1-0.2-0.2-0.3-0.2c-0.1,0-0.3,0-0.4,0.1
			c-1.3,1.1-3,1.7-4.4,1.7c-1.8,0-3.9-0.9-4.4-3.4h10.8c0.2,0,0.5-0.2,0.5-0.4c0.1-0.5,0.1-1.1,0.1-1.7C102.1,17.4,99,14,94.3,14z
			 M90.8,20.6c0.5-1.6,1.7-2.5,3.4-2.5c1.5,0,2.6,1,2.8,2.5H90.8z"/>
		<path id="XMLID_9_" class="st0" d="M113.2,14c-2.5,0-4.3,1.1-5.4,2.4v-1.5c0-0.3-0.2-0.5-0.5-0.5h-4c-0.3,0-0.5,0.2-0.5,0.5v16.6
			c0,0.3,0.2,0.5,0.5,0.5h4.1c0.3,0,0.5-0.2,0.5-0.5v-7.8c0-2.9,1.8-4.9,4.3-4.9c1.5,0,2.1,0.8,2.1,2.9v9.8c0,0.3,0.2,0.5,0.5,0.5
			h4.1c0.3,0,0.5-0.2,0.5-0.5V20.8C119.5,16.4,117.3,14,113.2,14z"/>
		<path id="XMLID_8_" class="st0" d="M130.7,27.4c-0.3,0.1-0.4,0.1-0.6,0.1c-1.3,0-2.8-0.5-2.8-2.6v-6h3.3c0.3,0,0.5-0.2,0.5-0.5
			v-3.3c0-0.3-0.2-0.5-0.5-0.5h-3.3v-4.3c0-0.3-0.2-0.5-0.5-0.5h-4c-0.3,0-0.5,0.2-0.5,0.5v4.3h-1.8c-0.3,0-0.5,0.2-0.5,0.5v3.3
			c0,0.3,0.2,0.5,0.5,0.5h1.7v6.5c0,6.1,5.2,6.7,7.4,6.7c0.5,0,0.8,0,1.1-0.1l0.2,0c0.2,0,0.4-0.2,0.4-0.5v-3.6
			c0-0.1-0.1-0.3-0.2-0.4C131,27.4,130.8,27.4,130.7,27.4z"/>
		<path id="XMLID_7_" class="st0" d="M143.2,18.8v-4.1c0-0.2-0.2-0.5-0.4-0.5c-0.3,0-0.5-0.1-0.8-0.1c-1.9,0-3.6,1-4.8,2.7v-2
			c0-0.3-0.2-0.5-0.5-0.5h-4c-0.3,0-0.5,0.2-0.5,0.5v16.6c0,0.3,0.2,0.5,0.5,0.5h4.1c0.3,0,0.5-0.2,0.5-0.5v-6.7
			c0-2.7,1.2-5.6,4.4-5.6c0.4,0,0.8,0,0.9,0.1c0.1,0,0.3,0,0.4-0.1C143.1,19.1,143.2,18.9,143.2,18.8z"/>
		<path id="XMLID_22_" class="st0" d="M152.4,14c-5.4,0-9.5,3.9-9.5,9.2c0,5.2,4.1,9.2,9.6,9.2c5.5,0,9.6-3.9,9.6-9.2
			C162,17.9,157.9,14,152.4,14z M152.4,27.8c-2.6,0-4.4-2-4.4-4.7c0-2.7,1.9-4.7,4.4-4.7c2.5,0,4.4,2,4.4,4.7
			C156.9,25.8,155,27.8,152.4,27.8z"/>
	</g>
	<path id="XMLID_19_" class="st1" d="M0,7.6c6.6,0,13.2,0,19.8,0v7.5H9.6v1.6h9.8V24H9.6c0,3,0,5.3,0,8.3H0V7.6z"/>
	<path id="XMLID_17_" class="st1" d="M49.6,28v4.3H40V7.6h8l6.2,9.7l0-5.2V7.6h9.6v24.7h-8l-6.1-9.7L49.6,28z"/>
	<path id="XMLID_14_" class="st1" d="M44.6,31.3l-3.5-8.9l-0.3-0.6l-0.1-0.2l-0.3-0.7L35.1,7.6H24.2l-5.4,13.3l-0.3,0.7l-0.1,0.2
		l-0.3,0.6l-3.5,8.9l-0.4,1h8.5l-1.5,4.6l8.4-6.1l8.4,6.1l-1.5-4.6H45L44.6,31.3z M35.5,33.4l-5.5-4l-0.4-0.3l-0.4,0.3l-5.5,4
		l0.4-1.1l1.9-5.8l-5.8-4.2h7.2l2.2-6.9l2.2,6.9h7.2l-5.8,4.2l1.9,5.8L35.5,33.4z"/>
</g>
</svg>
