<svg id="work" xmlns="http://www.w3.org/2000/svg" xmlns:xlink="http://www.w3.org/1999/xlink" viewBox="0 0 339.57 52.31"><defs><style>.cls-1{fill:#fff;}.cls-2{fill:url(#radial-gradient);}</style><radialGradient id="radial-gradient" cx="200.1" cy="124.92" r="76.04" gradientTransform="translate(-96.65 -62.39) scale(0.85 0.69)" gradientUnits="userSpaceOnUse"><stop offset="0" stop-color="#fbf7bf"/><stop offset="0.24" stop-color="#fbeb8a"/><stop offset="0.49" stop-color="#fbdf58"/><stop offset="0.71" stop-color="#fbd733"/><stop offset="0.89" stop-color="#fbd21d"/><stop offset="1" stop-color="#fbd015"/></radialGradient></defs><title>SC_poweredByMC</title><path class="cls-1" d="M289.38,107.15h-3.85a.43.43,0,0,0-.39.24l-7,14.19-7-14.19a.44.44,0,0,0-.39-.24h-3.85a.43.43,0,0,0-.43.4l-2.17,26.36a.43.43,0,0,0,.43.47h3.7a.44.44,0,0,0,.43-.4l1.27-16.61c.07-.73.09-1.59.09-2.33l7.51,14.36a.44.44,0,0,0,.77,0l7.58-14.31c0,.72,0,1.56.09,2.27L287.42,134a.44.44,0,0,0,.43.4h3.66a.43.43,0,0,0,.32-.14.43.43,0,0,0,.11-.33l-2.13-26.36A.43.43,0,0,0,289.38,107.15Z" transform="translate(-128.35 -87.09)"/><path class="cls-1" d="M303,114.17a10.33,10.33,0,1,0,10.63,10.29C313.62,118.59,309.05,114.17,303,114.17Zm0,16.65a6.33,6.33,0,1,1,6.06-6.36A6.15,6.15,0,0,1,303,130.82Z" transform="translate(-128.35 -87.09)"/><path class="cls-1" d="M332.53,107.15l-3.59,1.16a.43.43,0,0,0-.44.44v7.65a7.32,7.32,0,0,0-5.43-2.23c-5.37,0-9,4.15-9,10.33s3.52,10.33,8.76,10.33a7.47,7.47,0,0,0,5.8-2.58v1.69a.44.44,0,0,0,.44.44h3.43a.44.44,0,0,0,.44-.44V107.59A.44.44,0,0,0,332.53,107.15Zm-9,23.67c-2.93,0-4.9-2.54-4.9-6.32s2-6.29,5-6.29c3.41,0,4.94,3.14,4.94,6.25C328.59,129.15,326,130.82,323.57,130.82Z" transform="translate(-128.35 -87.09)"/><path class="cls-1" d="M343.94,114.17c-5.84,0-9.92,4.25-9.92,10.33a10.06,10.06,0,0,0,10.48,10.33,11.81,11.81,0,0,0,7.61-2.8.44.44,0,0,0,.08-.54l-1.53-2.65a.43.43,0,0,0-.31-.21.43.43,0,0,0-.36.11,8.13,8.13,0,0,1-5.27,2.09,5.8,5.8,0,0,1-6-5.4H352a.43.43,0,0,0,.43-.37,11.08,11.08,0,0,0,.15-1.59C352.55,117.9,349.09,114.17,343.94,114.17Zm-5.07,7.77a5,5,0,0,1,5-4.09c2.3,0,3.88,1.59,4.13,4.09Z" transform="translate(-128.35 -87.09)"/><path class="cls-1" d="M360.24,130.38a3.71,3.71,0,0,1-.56,0c-.82,0-1.62-.17-1.62-2.25V107.59a.44.44,0,0,0-.44-.44L354,108.31a.43.43,0,0,0-.44.44v20c0,3.86,1.85,5.81,5.51,5.81a7.18,7.18,0,0,0,1.14-.1l.11,0a.44.44,0,0,0,.38-.43v-3.21a.44.44,0,0,0-.15-.33A.43.43,0,0,0,360.24,130.38Z" transform="translate(-128.35 -87.09)"/><path class="cls-1" d="M392.6,114.08c-5.85,0-9.93,4.19-9.93,10.18a11.18,11.18,0,0,0,.2,2.1,13.63,13.63,0,0,1-7.55,2.74c-5.56,0-8.09-4.47-8.09-8.63s2.49-8.27,8.05-8.27a10.86,10.86,0,0,1,6.65,2.58.55.55,0,0,0,.43.13.54.54,0,0,0,.38-.24L385,111.2a.54.54,0,0,0-.08-.69,14.13,14.13,0,0,0-9.84-3.65,13.25,13.25,0,0,0-13.72,13.68c0,8.19,5.67,13.9,13.79,13.9,4.23,0,7.59-1.15,10-3.38a10.48,10.48,0,0,0,8,3.38,12.14,12.14,0,0,0,7.76-2.77A.54.54,0,0,0,401,131l-1.81-3.29a.54.54,0,0,0-.81-.16,8.13,8.13,0,0,1-4.93,1.9,4.71,4.71,0,0,1-4.9-3.79h12.05a.54.54,0,0,0,.54-.47,15.3,15.3,0,0,0,.15-1.84C401.3,117.81,397.8,114.08,392.6,114.08Zm-3.86,7.37a3.8,3.8,0,0,1,3.75-2.82,3,3,0,0,1,3.1,2.82Z" transform="translate(-128.35 -87.09)"/><path class="cls-1" d="M413.66,114.08a7.76,7.76,0,0,0-6,2.66v-1.68a.54.54,0,0,0-.54-.54h-4.4a.54.54,0,0,0-.54.54v18.41a.54.54,0,0,0,.54.54h4.59a.54.54,0,0,0,.54-.54v-8.63c0-3.23,2-5.49,4.77-5.49,1.71,0,2.34.87,2.34,3.21v10.9a.54.54,0,0,0,.54.54h4.58a.54.54,0,0,0,.54-.54V121.63C420.63,116.69,418.22,114.08,413.66,114.08Z" transform="translate(-128.35 -87.09)"/><path class="cls-1" d="M433.1,129a3.1,3.1,0,0,1-.72.06c-1.42,0-3.1-.51-3.1-2.93V119.5h3.65a.54.54,0,0,0,.54-.54v-3.65a.54.54,0,0,0-.54-.54h-3.65V110a.54.54,0,0,0-.54-.54h-4.48a.54.54,0,0,0-.54.54v4.73h-1.95a.54.54,0,0,0-.54.54V119a.54.54,0,0,0,.54.54h1.84v7.22c0,6.75,5.73,7.47,8.2,7.47a10.19,10.19,0,0,0,1.21-.08l.25,0a.54.54,0,0,0,.49-.54v-4a.53.53,0,0,0-.2-.42A.53.53,0,0,0,433.1,129Z" transform="translate(-128.35 -87.09)"/><path class="cls-1" d="M447,119.39v-4.51a.54.54,0,0,0-.47-.54,7.18,7.18,0,0,0-.94-.08,6.51,6.51,0,0,0-5.31,3v-2.18a.54.54,0,0,0-.54-.54h-4.41a.54.54,0,0,0-.54.54v18.41a.54.54,0,0,0,.54.54h4.59a.54.54,0,0,0,.54-.54V126c0-3,1.28-6.17,4.87-6.17a7.32,7.32,0,0,1,1,.06.56.56,0,0,0,.45-.11A.54.54,0,0,0,447,119.39Z" transform="translate(-128.35 -87.09)"/><path class="cls-1" d="M457.23,114.08c-6.05,0-10.62,4.38-10.62,10.18s4.58,10.18,10.65,10.18,10.65-4.38,10.65-10.18S463.33,114.08,457.23,114.08Zm0,15.38a4.89,4.89,0,0,1-4.91-5.2,4.94,4.94,0,1,1,4.91,5.2Z" transform="translate(-128.35 -87.09)"/><path class="cls-1" d="M217.4,139.11h0Z" transform="translate(-128.35 -87.09)"/><path class="cls-1" d="M264.37,101.21s0-.09,0-.14a3,3,0,0,0-.74-1.38h0a3.58,3.58,0,0,0-2.31-1.16,124.22,124.22,0,0,0-18.58-.18c-1.67-3.71-3.34-7.2-5-10.38a1.83,1.83,0,0,0-1.62-.84l-.23,0h-.22l-.14,0-.28,0-.2,0-.3.08-.17,0,0,0a4.51,4.51,0,0,0-.48.19l-.22.12-.26.15-.17.12a2.76,2.76,0,0,0-.65.64,84.23,84.23,0,0,0-7,12.22,83.27,83.27,0,0,0-13.52,4.06,4.24,4.24,0,0,0-2.14,2.73,2.34,2.34,0,0,0,.24,1.68,1.28,1.28,0,0,0,1,.45,2.08,2.08,0,0,0,.46-.1,98.52,98.52,0,0,1,15.45-4,3.79,3.79,0,0,0,2.82-2.4c1.38-3.07,2.85-6,4.39-8.77.93,2.28,2,4.85,3.08,7.8a2.85,2.85,0,0,0,2.79,1.61h.14c4.18-.32,8.36-.44,12.47-.41q-5,3.46-10.56,7.62a3.37,3.37,0,0,0-1.16,3.69c1.34,3.83,2.82,7.85,4.37,12.13-3.65-2.42-7.38-4.91-11-7.34a3.09,3.09,0,0,0-3.79.28c-2.88,2.42-5.4,4.62-7.67,6.65q.47-1.67,1-3.41s0-.1,0-.13,0-.14,0-.2.08-.4.07-.6c-.13-1.07-.93-1.58-2.2-1.33a5.17,5.17,0,0,0-.87.29,5.94,5.94,0,0,0-3.06,3.3c-.63,1.77-1.2,3.26-1.71,4.64a15,15,0,0,1-2.44-.55,7.13,7.13,0,0,1-2-1.16l0,0a9.2,9.2,0,0,1,.76-2.84c1.31-2.55,3.65-4.79,9-7.5.87-.44,1.82-.89,2.86-1.36a40.27,40.27,0,0,1,7.55-2.53.82.82,0,0,0,.47-.39c.52-.82,1-1.71,1.48-2.54a1.16,1.16,0,0,0,.17-.74.65.65,0,0,0-.25-.63c-.55-.64-1.18-1.11-1.73-1.72a.36.36,0,0,0-.48-.13,35.21,35.21,0,0,0-8.18,3.5l-1.17.68c-5.72,3.51-10.58,7.79-12.13,11.78a5.23,5.23,0,0,0,.21,4.1,16.13,16.13,0,0,0,1.59,2.42l.19.22h0a3.45,3.45,0,0,0,.58.51,9,9,0,0,0,2.74,1.27,31.33,31.33,0,0,0-.94,3.61,3.26,3.26,0,0,0,.43,2.87,2.89,2.89,0,0,0,2.09,1.33h.12a2.48,2.48,0,0,0,1.44-.57c4.29-3.91,9-8,14-12.13,5.06,3.54,10.67,7.21,17,11.33a3.26,3.26,0,0,0,2.3.93h.24a6,6,0,0,0,1-.24,3.63,3.63,0,0,0,1.88-1.91,3.08,3.08,0,0,0,.12-.32c0-.06,0-.11.06-.17a3.12,3.12,0,0,0,.1-.57v0a3.12,3.12,0,0,0,0-.51c0-.1,0-.2,0-.31s0-.07,0-.11l0-.06c0-.1,0-.2-.05-.3-2-5.72-4.16-11.82-7-19.63,5-3.83,9.79-7.33,14-10.3.32-.27.7-.45,1-.72a2.27,2.27,0,0,0,.95-1.6A2.33,2.33,0,0,0,264.37,101.21Z" transform="translate(-128.35 -87.09)"/><path class="cls-1" d="M185.86,121.19c0,3.66-2.3,6.18-5.81,6.18a4.82,4.82,0,0,1-4.33-2.21v2.12h-2.65v-17.1h2.65v7a4.79,4.79,0,0,1,4.29-2.21C183.49,114.93,185.86,117.46,185.86,121.19Zm-2.67-.09a3.74,3.74,0,1,0-3.73,4A3.72,3.72,0,0,0,183.19,121.1Z" transform="translate(-128.35 -87.09)"/><path class="cls-1" d="M193,129a4.09,4.09,0,0,1-4,2.9,4.15,4.15,0,0,1-2.83-1l1.13-2.05a2.59,2.59,0,0,0,1.59.6,2,2,0,0,0,1.87-1.36l.41-.92L186.09,115h2.74l3.66,9.29,3.41-9.29h2.65Z" transform="translate(-128.35 -87.09)"/><polygon class="cls-2" points="38.21 22.76 21.57 22.76 29.06 0.9 0 30.45 16.65 30.45 9.16 52.31 38.21 22.76"/></svg>